<svg xmlns="http://www.w3.org/2000/svg" fill-rule="evenodd" stroke-miterlimit="1.414" viewBox="0 0 50 50" clip-rule="evenodd" stroke-linejoin="round"><path fill="#004A87" d="M0 0h50v50H0z"/><path fill="#fff" d="M41.095 41.48L47.86 8.065 0 7.38v34.432l39.707.066 1.388-.398z"/><path fill="#004A87" d="M42.46 42.722H0v-1.405c10.56-4.085 40.53-15.69 41.007-16.047 0 0 4.078-6.167 1.57-8.267-.836-.693-1.423-.888-6.187-.86 0 0 .21-1.314-6.595-2.516C29.248 13.534 3.572 8.26 0 7.525V7.28l50-.006-7.54 35.448zM0 15.466h21.428c.434.028 14.19-.352 13.226 2.37H13.037l3.384 10.486c2.998-1.583 13.41-5.726 18.847-5.984 1.783-.083 2.83-.05 2.87.51.012.194-.427.368-1.477.558-2.695.48-7.333 1.906-8.415 2.275-5.675 1.94-11.814 4.96-16.258 7.24-1.18.603-6.957 3.45-11.985 5.923V15.468zm38.288 2.528c1.897 0 3.265.24 3.08 1.84-.132 1.13-1.34 3.342-1.61 3.633-.267.295-.728.34-.493-.33.602-1.733 1.2-3.058.46-3.292-1.403-.448-6.064.53-8.652.53-1.126 0-1.254-.157-1.244-.425.01-.302.22-.38 1.01-.446.812-.073 2.56-.25 3.23-.583v.008c.43-.218.562-.358.73-.575.184-.247.316-.354.47-.354h3.013z"/></svg>