<svg xmlns="http://www.w3.org/2000/svg" viewBox="0 0 205 207"><g id="Your-Page(s)" fill="none" fill-rule="nonzero" transform="translate(-207 -891)"><g id="spot-icon-real-time" transform="translate(215 904)"><path id="Shape" fill="#F4F6F8" d="M97.277 10.27c-99.36-3.616-119.571 178.442 4.32 162.076 20.655-2.73 49.198-7.904 64.395-26.73 33.5-41.52 8.582-132.54-68.715-135.347z"/><path id="Shape" fill="#948FFC" d="M183.33 135.346a11.964 11.964 0 0 1-8.968 2.25c-97.084-7.25-122.87 10.096-124.007-9.98-.81-14 1.215-26.924-1.311-40.25-5.786-30.77 13.5-14.54 124.797-19.366 18.225-.788 12.035 25.98 12.035 36.096 0 8.173 4.763 25.096-2.546 31.25z"/><path id="Shape" fill="#948FFC" d="M184.314 136.538a11.687 11.687 0 0 1-6.5 2.558c-1.116.096-2.239.096-3.355 0l-3.086-.211-12.343-.808a146.7 146.7 0 0 0-12.343-.52h-12.362c-16.45-.115-32.901 0-49.39 1-8.255.328-16.451 1.135-25.072.193a16.657 16.657 0 0 1-6.422-2.077 8.706 8.706 0 0 1-2.604-2.5 10.83 10.83 0 0 1-1.37-3.25 19.774 19.774 0 0 1-.443-3.288v-9.346c.135-4.135.174-8.25.232-12.347.058-4.096 0-8.173-.367-12.23-.154-1.924-.443-4.039-.771-6.039a60.087 60.087 0 0 1-.81-6.211c-.2-2.167-.031-4.352.501-6.462a8.677 8.677 0 0 1 4.07-5.192 17.045 17.045 0 0 1 6.152-1.923 58.018 58.018 0 0 1 6.268-.597c4.165-.173 8.312-.115 12.439 0 8.254.327 16.528 0 24.782.27 16.49.307 32.979.269 49.449-.25l12.381-.173 6.171-.154c2.103 0 4.031-.25 6.345-.154 2.339.112 4.595.893 6.5 2.25a12.907 12.907 0 0 1 4.088 5.48 31.859 31.859 0 0 1 1.813 12.693c-.096 4.192-.598 8.327-.964 12.404-.185 2-.237 4.011-.154 6.02.135 1.922.385 4.018.636 6.057.616 4.139.938 8.316.964 12.5a25.144 25.144 0 0 1-.868 6.461 12.475 12.475 0 0 1-3.567 5.846zm-1.929-2.307c2.565-2.289 3.394-6.289 3.452-10.193a83.267 83.267 0 0 0-.887-12.076c-.231-2.039-.501-4.097-.636-6.25a46.023 46.023 0 0 1 .192-6.366c.27-4.134.521-8.211.502-12.211a34.351 34.351 0 0 0-1.6-11.423 9.616 9.616 0 0 0-2.952-4.154 9.08 9.08 0 0 0-4.782-1.712c-1.736-.115-3.973 0-5.998 0l-6.191.212-12.4.269c-16.548-.135-33.076.25-49.604 0-4.127 0-8.273 0-12.381-.462-4.11-.364-8.237-.5-12.362-.403-4.108 0-8.235 0-12.266.346-3.832.097-7.61.926-11.128 2.442a5.965 5.965 0 0 0-2.95 3.596 13.904 13.904 0 0 0-.444 5.5c.188 1.988.478 3.965.868 5.923.386 2.077.713 4.173.906 6.27.379 4.155.507 8.329.386 12.5 0 4.153-.347 8.269-.212 12.346 0 2.057.116 4.077.193 6.115l.193 3.038c.07.904.191 1.803.366 2.693a5.768 5.768 0 0 0 2.546 3.846 14.145 14.145 0 0 0 5.149 1.73c4.025.48 8.086.583 12.13.308l12.382-.269c16.509-.5 33.017-1.615 49.584-1.442 4.127.134 8.273.27 12.4.48 2.064 0 4.128.231 6.191.29l6.21.172c4.127.096 8.254.385 12.382.635l3.085.192c.95.077 1.905.077 2.855 0a8.614 8.614 0 0 0 4.782-1.98l.039.038z"/><path id="Shape" fill="#0C1238" d="M74.674 93.962c7.29-.154 14.657-1.924 22.449-2.385a54.154 54.154 0 0 1 5.786.096l5.689.404c3.857.308 7.56.385 11.34.596 3.78.212 7.54.212 11.301.462l5.632.23c1.837.096 3.678.096 5.515 0 3.723-.23 7.483-.827 11.283-1.23a59.279 59.279 0 0 1 11.687 0c.928.124 1.59.96 1.496 1.888a1.734 1.734 0 0 1-1.843 1.554 70.148 70.148 0 0 0-10.974.27c-3.722.307-7.483.672-11.32.941a53.767 53.767 0 0 1-5.786.193c-1.929 0-3.858 0-5.786-.154-3.857-.115-7.58-.48-11.36-.77-3.78-.288-7.54-.672-11.32-.845l-5.65-.231a52.8 52.8 0 0 0-5.517.115c-3.664.289-7.405.692-11.166 1.192-1.929.193-3.857.558-5.786.75-1.928.193-3.857.385-5.785.539a1.739 1.739 0 0 1-1.861-1.606 1.737 1.737 0 0 1 1.61-1.856h.25l.116-.153zm.058 16.538c4.744 0 9.47-.154 14.233-.308 2.372 0 4.764-.115 7.155-.25 2.391-.134 4.686-.538 7.194-.75a60.786 60.786 0 0 1 14.637.654c2.375.284 4.764.445 7.155.48 2.353.116 4.687.193 7.02.174a1.735 1.735 0 0 1 1.813 1.654c.043.956-.7 1.765-1.658 1.808-4.887.287-9.79.029-14.619-.77a129.58 129.58 0 0 0-14.078-.75c-4.706.193-9.643.77-14.388 1.154-2.41.192-4.84.116-7.251.154H78.3c-1.215 0-2.43 0-3.664.115a1.72 1.72 0 0 1-1.318-.387 1.71 1.71 0 0 1-.61-1.228c-.049-.47.096-.94.401-1.303a1.757 1.757 0 0 1 1.218-.62h.367l.038.173zM69.43 85.788a24.231 24.231 0 0 1-2.257 9.616 16.09 16.09 0 0 1-2.72 4.346c-.36.377-.76.712-1.195 1-.236.171-.488.32-.752.442l-.424.193a3.21 3.21 0 0 1-1.292.115h-.849c-.25 0-.386-.135-.598-.192l-1.1-.366c-2.892-.884-5.785-1.538-8.658-2.346-1.447-.384-2.855-.846-4.263-1.327-1.407-.48-2.815-.961-4.185-1.5-5.573-2.077-11.07-4.288-16.585-6.461L16.084 86c-2.912-1.135-5.785-2.404-8.601-3.596l-4.224-1.808-1.06-.461a4.618 4.618 0 0 1-.984-1.231 5.872 5.872 0 0 1-.79-3.039c.073-1.754.54-3.47 1.369-5.019.713-1.461 1.523-2.673 2.333-4.058a5.989 5.989 0 0 1 2.044-2.076 5.799 5.799 0 0 1 2.893-.75c1.347.136 2.704.136 4.05 0 2.083-.347 3.433-3 4.532-5.654 1.1-2.654 1.929-5.577 3.183-8.366a28.493 28.493 0 0 1 5.091-7.692 21.833 21.833 0 0 1 7.714-5.288 24.48 24.48 0 0 1 4.436-1.616 31.404 31.404 0 0 1 4.648-.634L41.059 36c.193-.885.27-2.404.502-3.846.102-.818.31-1.62.617-2.385.241-.612.64-1.149 1.157-1.557.252-.179.516-.34.79-.481.238-.107.483-.197.734-.27a11.604 11.604 0 0 1 4.84-.192 24.3 24.3 0 0 1 4.282.981c1.43.453 2.808 1.06 4.108 1.808a8.995 8.995 0 0 1 3.857 3.692 4.968 4.968 0 0 1 .135 3.692 6.5 6.5 0 0 1-1.813 2.52 15.595 15.595 0 0 1-4.147 2.346 2.279 2.279 0 0 1-3.066-.962A2.283 2.283 0 0 1 54 38.02h.309a4.66 4.66 0 0 1 3.182 0c.387.133.762.3 1.118.5.345.17.674.37.984.596a13.634 13.634 0 0 1 2.816 2.866 26.495 26.495 0 0 1 3.51 6.48 29.928 29.928 0 0 1 1.581 6.827 25.39 25.39 0 0 1 0 7.154c-.405 2.346-.945 4.654-1.524 6.923a36.116 36.116 0 0 1-1.06 3.462c-.482 1.115-.945 2.115-1.312 3.077a5.755 5.755 0 0 0-.501 2.423c0 .385.173.52.887.904a11.079 11.079 0 0 1 3.471 1.923 5.767 5.767 0 0 1 1.447 2.27c.13.39.233.787.308 1.191l.213 1.173zm-4.571 0a2.015 2.015 0 0 0-.482-1.5 13.186 13.186 0 0 0-2.411-1.25 6.46 6.46 0 0 1-2.18-1.596 5.222 5.222 0 0 1-1.08-2.807 10.052 10.052 0 0 1 .907-4.347l1.427-3.134c.309-.73.56-1.923.849-2.923.498-2.041.77-4.13.81-6.231 0-2.096 0-4.135-.154-6.173a25.743 25.743 0 0 0-1.196-5.962 17.556 17.556 0 0 0-2.584-5.288 9.261 9.261 0 0 0-1.833-1.923 1.428 1.428 0 0 0-.424-.25 1.699 1.699 0 0 0-.366-.192c-.193 0-.212 0 0 0l-1.929-4.52c.982-.434 1.93-.942 2.835-1.519.247-.174.462-.389.637-.635 0-.096.115 0 0-.269a4.622 4.622 0 0 0-1.929-1.923 13.867 13.867 0 0 0-3.26-1.442 19.526 19.526 0 0 0-3.548-.77 7.272 7.272 0 0 0-3.008.154h-.174l.174-.153a10.3 10.3 0 0 0-.27 1.384l-.213 1.923a19.008 19.008 0 0 1-.385 2.366 2.447 2.447 0 0 1-2.102 1.923h-.27c-1.35.134-2.7.25-4.05.423-1.346.06-2.682.247-3.993.558a13.632 13.632 0 0 0-6.248 4.673 22.318 22.318 0 0 0-2.122 3.346c-.655 1.173-1.195 2.423-1.755 3.692-1.118 2.52-2.526 5.077-3.51 7.98a31.362 31.362 0 0 1-2.082 4.462 9.372 9.372 0 0 1-1.929 2.308 7.916 7.916 0 0 1-2.99 1.48c-1.665.321-3.37.373-5.052.155a2.417 2.417 0 0 0-.907 0c-.3.175-.546.427-.713.73a13.436 13.436 0 0 0-2.334 6.77 1.65 1.65 0 0 0 .116.769c.05.131.137.245.25.327l.926.423 3.723 1.692c2.468 1.231 5.322 1.923 7.714 3.116l3.857 1.807c1.33.635 2.68 1.25 4.07 1.789C31.145 87.5 36.835 89.077 42.466 91l4.224 1.385c1.408.461 2.796.923 4.185 1.48 2.738 1.058 5.458 2.289 8.235 3.135.366.096.694.212 1.041.27.164.046.332.078.502.095h.212a1.199 1.199 0 0 0-.617.116l.212-.173c.172-.164.327-.344.463-.539a12.338 12.338 0 0 0 1.928-3.269 19.859 19.859 0 0 0 1.967-7.615l.039-.097z"/><path id="Shape" fill="#FA8D8D" d="M42.834 99.673s-3.067 7.827-10.935 4.77c-7.869-3.058-4.783-10.905-4.783-10.905l15.718 6.135z"/><path id="Shape" fill="#FA8D8D" d="M44.222 99.058c.09.226.13.468.116.711v.385c-.005.07-.005.141 0 .211v.116l-.097.23c-.07.146-.146.287-.231.424-.315.55-.67 1.077-1.06 1.577-.194.25-.502.403-.695.653-.193.25-.733 1.077-1.176 1.616a5.245 5.245 0 0 1-1.678 1.192 7.734 7.734 0 0 1-4.089.635 9.548 9.548 0 0 1-3.934-1.039c-.56-.327-1.1-.615-1.62-.98a9.959 9.959 0 0 1-1.389-1.308 5.96 5.96 0 0 1-2.083-3.116c-.173-.596-.385-1.173-.52-1.788a5.753 5.753 0 0 1-.097-1.923c0-.596.135-1.192.232-1.77a10.95 10.95 0 0 1 .115-1.922c.217-.562.83-.863 1.408-.693h.116c1.408.423 2.835.904 4.262 1.404.743.177 1.467.429 2.16.75.616.389 1.26.73 1.929 1.02.694.307 1.465.5 2.16.807.642.28 1.255.622 1.832 1.02 1.33.807 2.893 1.23 4.34 1.788zm-2.777 1.211c-1.35-.384-2.584-.827-3.857-1.192a9.218 9.218 0 0 1-3.76-1.212c-.56-.269-1.177-.48-1.775-.75-.598-.269-1.06-.653-1.659-.903-1.234-.5-2.642-.597-3.857-1.058l2.18-.923c0 .346-.733.711-.695 1.211-.043.496.022.995.193 1.462.159.422.269.86.328 1.308-.106.432-.058.887.135 1.288.401.746.88 1.449 1.427 2.096.328.308.964.192 1.234.558.27.365.695.673 1.1.98.21.135.447.22.694.25.227.084.447.187.656.308.418.282.89.472 1.388.558.975.07 1.94-.233 2.7-.846.364-.285.744-.548 1.138-.789a3.393 3.393 0 0 0 1.157-.865c.135-.212.212-.462.328-.673l.366-.635c.116-.23.213-.442.309-.673l.135-.307v-.174a1.42 1.42 0 0 0 0 .481c.004.175.05.347.135.5z"/><path id="Shape" fill="#948FFC" d="M151.296 134.615c-5.785 1.558 13.79 17.193 25.689 21.404a2.415 2.415 0 0 0 2.65-.772 2.398 2.398 0 0 0 .185-2.747c-4.494-7.5-6.943-14.038-5.014-18.538l-23.51.653z"/><path id="Shape" fill="#948FFC" d="M151.528 136.038h.116c.115 0 0-.326 0-.192.1.401.277.78.52 1.116a10.968 10.968 0 0 0 2.237 2.75 67.699 67.699 0 0 1 6.075 4.519 63.166 63.166 0 0 0 6.037 4.519 105.344 105.344 0 0 0 6.345 4.135c1.056.68 2.189 1.235 3.375 1.653.486.22.989.4 1.504.539.402.037.801-.092 1.104-.358a1.46 1.46 0 0 0 .497-1.046 2.324 2.324 0 0 0-.598-1.308 34.434 34.434 0 0 1-1.929-3.442l-.848-1.75a12.313 12.313 0 0 0-.868-1.75 12.596 12.596 0 0 1-1.524-3.673 13.118 13.118 0 0 1-.135-8.442l1.428 2.096c-1.927.122-3.86.122-5.786 0-1.929 0-3.857.173-5.786.25a25.142 25.142 0 0 1-2.931-.135h-2.932l-5.901.52zm-.444-2.98l5.902-.27c.983 0 1.928 0 2.95-.211a21.62 21.62 0 0 1 2.951-.308h5.94c1.987 0 3.857 0 5.94.116h.309c.715.08 1.241.706 1.195 1.423a1.19 1.19 0 0 1-.173.519 8.382 8.382 0 0 0 .27 6.558c.463 1.13.793 2.312.983 3.519.124.611.366 1.193.714 1.711.304.549.646 1.075 1.022 1.577.77.994 1.465 2.041 2.083 3.135.135.288.25.52.482 1.115.175.527.247 1.082.212 1.635a4.302 4.302 0 0 1-1.234 2.942 3.979 3.979 0 0 1-3.028 1.193 3.732 3.732 0 0 1-.83-.135l-.385-.115h-.231l-.945-.385a17.384 17.384 0 0 0-3.703-1.558 11.576 11.576 0 0 1-3.356-2.096 13.345 13.345 0 0 0-1.6-1.135 8.41 8.41 0 0 1-1.64-1.096c-1.003-.827-1.928-1.75-2.99-2.519-1.06-.77-2.14-1.461-3.24-2.173a23.935 23.935 0 0 1-5.978-5.077 32.827 32.827 0 0 1-2.796-2.961 5.339 5.339 0 0 1-1.042-2.327 2.59 2.59 0 0 1 .444-1.923c.232-.278.505-.518.81-.712.303-.185.627-.333.964-.442z"/><path id="Shape" fill="#FA8D8D" d="M45.804 16.154a11.987 11.987 0 0 1-.463-3.404 7.882 7.882 0 0 0-.135-3.423 9.742 9.742 0 0 1-.27-3.423 6.407 6.407 0 0 0-.328-1.692 6.368 6.368 0 0 1-.25-1.712c-.001-.46.185-.902.515-1.224a1.72 1.72 0 0 1 1.24-.488 1.735 1.735 0 0 1 1.638 1.193v.173a8.88 8.88 0 0 1 .463 3.404c.183 1.137.242 2.292.174 3.442a10.778 10.778 0 0 0 .27 3.423c.058.57.058 1.143 0 1.712.038.585.202 1.156.482 1.673a1.746 1.746 0 0 1-.675 2.384 1.738 1.738 0 0 1-2.18-.673 1.632 1.632 0 0 1-.173-.423l-.308-.942zm-5.497 5.961a11.55 11.55 0 0 1-2.295-2.557 7.694 7.694 0 0 0-2.063-2.77 9.62 9.62 0 0 1-2.141-2.673 5.277 5.277 0 0 0-1.234-1.211 8.795 8.795 0 0 1-1.1-1.308 1.747 1.747 0 0 1 .482-2.423 1.74 1.74 0 0 1 2.025 0l.155.115a8.546 8.546 0 0 1 2.256 2.597 14.446 14.446 0 0 1 2.064 2.75 11.545 11.545 0 0 0 2.179 2.673c.371.436.7.906.984 1.404.373.455.831.834 1.35 1.115a1.8 1.8 0 0 1 .848 2.404 1.81 1.81 0 0 1-2.41.846 1.331 1.331 0 0 1-.386-.25l-.714-.712z"/></g></g></svg>