<svg xmlns="http://www.w3.org/2000/svg" viewBox="0 0 205 207"><g id="Your-Page(s)" fill="none" fill-rule="nonzero" transform="translate(-207 -891)"><g id="spot-icon-manage-products" transform="translate(226 895)"><path id="Shape" fill="#F4F6F8" d="M86.85 23.563c-99.953-3.496-120.206 172.433 4.368 156.595 20.872-2.626 49.493-7.61 64.76-25.803 33.724-40.134 8.659-128.088-69.128-130.792z"/><path id="Shape" fill="#948FFC" d="M149.756 141.338L72.24 188.463l-48.547-77.892.677-44.885 37.106-22.558 39.733 20.318 48.547 77.892z"/><path id="Shape" fill="#0C1238" d="M165.526 144.505c-6.784 4.21-13.528 8.46-20.389 12.65-3.537 1.932-6.957 4.115-10.146 6.336l-9.818 6.624c-6.686 4.365-13.528 8.556-20.543 12.69l-20.717 12.36c-1.16.68-2.65.3-3.344-.85l-6.242-10.255-6.165-10.236c-4.097-6.953-8.252-13.848-12.117-20.801-1.933-3.477-4.136-6.857-6.262-10.256-2.125-3.4-4.155-6.837-6.223-10.256l-6.164-10.313c-1.933-3.457-4.252-6.798-6.378-10.178a1.448 1.448 0 0 1-.193-.734c0-7.513.367-15.007.522-22.52l.54-22.52c.02-.414.244-.791.6-1.004a243.664 243.664 0 0 0 9.663-6.026l9.663-6.238c3.188-2.125 6.493-4.056 9.663-6.084l9.778-6.026a1.934 1.934 0 0 1 1.74-.097l40.584 19.565c.341.169.634.421.85.734 2.203 3.419 4.426 6.837 6.59 10.294 2.165 3.457 4.136 7.011 6.204 10.507l3.054 5.253 3.246 5.196 6.455 10.41c4.368 6.972 7.866 13.944 12.31 20.859l13.239 20.916zm-4.426-1.062l-12.87-20.009c-4.079-6.683-9.084-13.25-12.95-19.874-3.864-6.624-7.942-13.326-12.097-19.99-1.933-3.36-4.136-6.663-6.068-10.062-1.933-3.4-3.866-6.818-5.914-10.217l.812.753-10.166-4.886-10.185-4.848-20.369-9.657 2.242-.231-9.663 6.045c-3.266 1.931-6.474 4.094-9.798 5.968-3.324 1.873-6.706 3.708-10.05 5.581l-4.947 2.897-4.85 3.033.985-1.72v33.78c0 3.747 0 7.514-.155 11.28l-.425-1.584c2.03 3.457 3.865 7.01 6.01 10.39l6.416 10.18c2.068 3.418 4.233 6.778 6.243 10.255 2.01 3.476 4 6.933 6.3 10.217l3.382 4.963c1.082 1.7 2.145 3.38 3.15 5.118 1.933 3.458 3.865 7.011 5.798 10.507 1.932 3.496 4.155 6.837 6.184 10.294l5.798 10.488-2.242-.541c3.382-1.932 6.803-3.863 10.088-5.794 3.285-1.932 6.629-4.056 9.876-6.142 6.532-4.152 12.967-8.324 19.577-12.303l10.165-5.794c3.46-1.931 6.706-3.979 9.876-6.045 6.609-4.095 13.354-8.054 19.847-12.052z"/><path id="Shape" fill="#FFF" d="M74.56 132.434a5.54 5.54 0 0 0 .424-1.584c.097-.637.174-1.313.213-1.93.096-1.372 0-2.782.096-4.173.04-.707.04-1.417 0-2.124 0-.695-.193-1.41-.29-2.105-.231-1.39-.521-2.782-.792-4.172-.502-2.762-.908-5.543-1.507-8.247a21.469 21.469 0 0 0-2.783-7.359 2.145 2.145 0 0 0-.87-.772.541.541 0 0 0-.444 0c-.329 0-.56 1.487-.329 2.704.217 1.32.566 2.613 1.044 3.863a34.56 34.56 0 0 0 1.585 3.862 32.347 32.347 0 0 0 2.183 3.593 52.774 52.774 0 0 0 2.416 3.457 33.167 33.167 0 0 0 2.725 3.206c.996.972 2.07 1.864 3.208 2.665a11.6 11.6 0 0 0 7.344 2.84 4.138 4.138 0 0 0 1.759-.445c.46-.34.842-.775 1.12-1.275a13.515 13.515 0 0 0 1.43-3.592c.607-2.678.848-5.427.716-8.17a23.761 23.761 0 0 0-.58-3.978 9.653 9.653 0 0 0-.58-1.739c-.155-.521-.541-.83-.367-.734.174.097.174 0 0 0-.222.11-.43.246-.619.406-.4.304-.718.702-.927 1.159-.303 1-.11 2.084.522 2.916a9.486 9.486 0 0 0 2.59 2.685 13.396 13.396 0 0 0 3.381 1.642 8.199 8.199 0 0 0 7.363-.792 15.454 15.454 0 0 0 5.257-5.794 1.527 1.527 0 1 1 2.628 1.525 18.662 18.662 0 0 1-6.454 6.722 13.864 13.864 0 0 1-9.663 1.448c-.821-.16-1.62-.42-2.377-.772a13.356 13.356 0 0 1-2.146-1.333 12.344 12.344 0 0 1-3.324-3.631 6.563 6.563 0 0 1-.599-5.659 5.91 5.91 0 0 1 1.72-2.453 5.798 5.798 0 0 1 1.198-.772 3.152 3.152 0 0 1 2.242-.29 3.401 3.401 0 0 1 1.72 1.178c.304.398.557.833.754 1.294.303.79.51 1.614.618 2.453.223 1.51.352 3.032.387 4.558a31.057 31.057 0 0 1-.715 8.961 11.469 11.469 0 0 1-1.933 4.481 5.798 5.798 0 0 1-2.357 1.642 8.102 8.102 0 0 1-1.334.386c-.425 0-.85.174-1.275.213a14.191 14.191 0 0 1-9.18-2.704 22.431 22.431 0 0 1-3.305-3.187 54.342 54.342 0 0 1-3.034-3.303 39.98 39.98 0 0 1-2.648-3.592c-.773-1.275-1.469-2.588-2.222-3.863a24.505 24.505 0 0 1-2.165-3.863 17.373 17.373 0 0 1-1.043-4.558 11.06 11.06 0 0 1 0-2.53 4.228 4.228 0 0 1 1.198-2.877 3.287 3.287 0 0 1 3.382-.696 4.618 4.618 0 0 1 2.184 1.932 21.973 21.973 0 0 1 1.932 4.171c.56 1.391.947 2.8 1.392 4.21a64.184 64.184 0 0 1 1.874 8.344c.174 1.449.252 2.897.329 4.346v2.182l.232 2.183c.129 1.477.161 2.96.096 4.442 0 .734 0 1.487-.173 2.279a8.184 8.184 0 0 1-.484 2.55 1.527 1.527 0 1 1-2.744-1.295v-.135z"/><path id="Shape" fill="#FFF" d="M104.63 96.858l-13.335 48.458c-13.39-3.68-21.259-17.51-17.577-30.892 3.683-13.381 17.522-21.246 30.912-17.566zm-12.562 64.238l13.335-48.478c13.395 3.68 21.269 17.516 17.587 30.902-3.683 13.387-17.527 21.256-30.922 17.576z" opacity=".15"/><path id="Shape" fill="#FFF" d="M81.169 160.014a69.017 69.017 0 0 1 3.266-1.931c1.101-.618 2.029-1.526 3.053-2.28 2.049-1.486 4.406-2.49 6.57-3.862a50.298 50.298 0 0 1 3.344-1.796c1.14-.56 2.261-1.14 3.44-1.642 1.18-.502 2.145-1.332 3.286-1.931a21.126 21.126 0 0 0 3.266-1.932c1.063-.695 2.203-1.236 3.304-1.93 1.102-.696 1.933-1.72 3.015-2.3l6.3-4.248a34.504 34.504 0 0 0 3.344-1.777c1.063-.676 2.087-1.43 3.208-1.931a13.279 13.279 0 0 0 3.324-1.932l3.092-2.182a1.528 1.528 0 0 1 2.453 1.092 1.525 1.525 0 0 1-.694 1.4h-.116l-3.208 2.433c-1.1.643-2.13 1.4-3.073 2.26a25.128 25.128 0 0 1-3.324 1.815c-1.14.54-2.203 1.236-3.324 1.815a27.368 27.368 0 0 0-6.436 3.998c-.49.41-1.064.706-1.681.87a3.17 3.17 0 0 0-1.7.85 23.42 23.42 0 0 1-2.977 2.394c-4.503 2.318-8.639 5.234-13.373 7.146a36.18 36.18 0 0 0-6.34 4.153 12.293 12.293 0 0 0-3.265 1.931 70.926 70.926 0 0 1-3.131 2.144c-.693.44-1.61.262-2.087-.406a1.525 1.525 0 0 1 .464-2.201v-.02zm-4.89-9.367c1.063-.676 2.165-1.294 3.266-1.931 1.102-.638 2.03-1.526 3.054-2.28 2.048-1.467 4.387-2.471 6.57-3.862a50.091 50.091 0 0 1 3.344-1.777c1.14-.56 2.26-1.14 3.42-1.66 1.16-.522 2.146-1.334 3.286-1.932a19.947 19.947 0 0 0 3.285-1.932c1.063-.676 2.203-1.216 3.286-1.931 1.082-.715 1.932-1.738 3.034-2.318l6.28-4.23a32.378 32.378 0 0 0 3.344-1.776c1.082-.676 2.107-1.43 3.228-1.932a13.53 13.53 0 0 0 3.304-1.815l3.112-2.183a1.527 1.527 0 0 1 2.126.348c.473.69.31 1.633-.368 2.125h-.135l-3.189 2.047a17.238 17.238 0 0 0-3.053 2.24 27.872 27.872 0 0 1-3.324 1.932c-1.16.54-2.203 1.216-3.324 1.815a27.368 27.368 0 0 0-6.436 3.998 4.156 4.156 0 0 1-1.7.85 3.209 3.209 0 0 0-1.682.869 24.85 24.85 0 0 1-2.976 2.395c-4.503 2.318-8.639 5.234-13.393 7.146a37.688 37.688 0 0 0-6.339 4.152c-1.063.657-2.396.908-3.266 1.932-.87 1.023-2.048 1.468-3.13 2.144a1.527 1.527 0 0 1-1.624-2.57v.136z"/><ellipse id="Oval" cx="61.379" cy="71.422" fill="#FFF" rx="6.223" ry="6.219"/><path id="Shape" fill="#FA8D8D" d="M63.273 69.954a14.46 14.46 0 0 1-2.397 8.286 19.456 19.456 0 0 1-5.99 5.794 54.516 54.516 0 0 1-7.248 3.206 48.724 48.724 0 0 1-7.537 2.183 37.98 37.98 0 0 1-15.673-.58 33.215 33.215 0 0 1-7.537-2.8 25.49 25.49 0 0 1-6.513-4.829 35.06 35.06 0 0 1-5.102-6.084 26.356 26.356 0 0 1-3.479-7.146A30.652 30.652 0 0 1 .831 52.38a48.262 48.262 0 0 1 2.222-7.417 33.559 33.559 0 0 1 3.421-6.875 49.32 49.32 0 0 1 10.3-11.048 37.77 37.77 0 0 1 13.529-7.088 47.49 47.49 0 0 1 7.518-1.487 26.473 26.473 0 0 1 7.73-.328c10.359 1.043 19.442 5.929 28.564 8.923a50.272 50.272 0 0 0 13.702 3.611 19.586 19.586 0 0 0 12.677-3.418 23.014 23.014 0 0 0 5.315-4.307 26.517 26.517 0 0 0 3.865-5.794c2-4.156 2.956-8.738 2.783-13.346a2.28 2.28 0 0 1 3.337-2.119 2.281 2.281 0 0 1 1.224 1.926v.116a32.585 32.585 0 0 1-3.517 15.45 36.694 36.694 0 0 1-4.33 6.683 27.956 27.956 0 0 1-5.797 5.794 22.31 22.31 0 0 1-7.77 3.11c-2.706.654-5.51.805-8.27.444a55.822 55.822 0 0 1-14.959-3.863c-2.319-.966-4.56-2.086-6.841-3.051-2.28-.966-4.58-1.932-6.841-2.685a66.632 66.632 0 0 0-13.8-3.303c-1.14-.116-2.28-.154-3.42-.328a20.788 20.788 0 0 0-3.46-.348 15.76 15.76 0 0 0-3.44.522c-1.133.26-2.244.608-3.323 1.043a47.34 47.34 0 0 0-6.126 3.167l-5.798 3.728a34.173 34.173 0 0 0-9.238 10.236 42.81 42.81 0 0 0-3.285 6.026 19.439 19.439 0 0 0-1.43 6.682c-.387 4.404-1.025 9.059.56 13.52a33.505 33.505 0 0 0 7.131 11.859 22.385 22.385 0 0 0 12.369 6.103c4.652.762 9.39.86 14.069.29a33.743 33.743 0 0 0 6.88-1.275 18.905 18.905 0 0 0 6.146-3.148 15.166 15.166 0 0 0 4.6-4.539 10.058 10.058 0 0 0 1.526-5.794 2.28 2.28 0 0 1 3.337-2.119 2.281 2.281 0 0 1 1.224 1.926l.058.096z"/></g></g></svg>