<svg xmlns="http://www.w3.org/2000/svg" viewBox="0 0 205 207"><g id="Your-Page(s)" fill="none" fill-rule="nonzero" transform="translate(-207 -891)"><g id="spot-icon-process-orders" transform="translate(213 913)"><path id="Shape" fill="#F4F6F8" d="M130.808 13.11C31.822-41-68.13 103.655 64.315 153.371c22.087 8.293 53.21 18.543 76.823 10.308 52.07-18.159 66.666-108.473-10.33-150.569z"/><path id="Shape" fill="#0C1238" d="M166.565 31.826l5.946 2.035c1.931.69 3.978 1.305 5.928 2.092.984.365 1.93.825 2.934 1.133 1.004.307 1.931.595 3.031.863 2.047.48 4.113.94 6.12 1.498a2.585 2.585 0 0 1 1.566 1.22c.337.6.42 1.307.23 1.966v.211c-2.625 8.945-6.12 17.622-9.093 26.47-1.468 4.416-3.109 8.773-4.73 13.15l-2.414 6.564-2.548 6.546c-2.703 8.926-6.41 17.525-8.978 26.49a970.216 970.216 0 0 0-4.576 13.225c-.733 2.208-1.023 4.569-1.699 6.795l-2.066 6.68a1.933 1.933 0 0 1-2.297 1.21c-6.217-1.92-12.376-3.84-18.593-5.759-6.217-1.92-12.298-4.472-18.554-6.2l-9.267-2.899c-3.09-1.017-6.024-2.457-9.113-3.416-6.159-1.92-12.414-3.724-18.612-5.605a2.224 2.224 0 0 1-1.486-2.765v-.326l.135-.307a2.283 2.283 0 0 1 2.973-1.21 2.28 2.28 0 0 1 1.216 2.976l-.135.307-1.351-3.11 18.515 5.874c3.108.96 6.313 1.555 9.383 2.592a325.46 325.46 0 0 1 9.171 3.244c6.043 2.36 12.299 4.088 18.303 6.564a188.443 188.443 0 0 0 18.535 5.76l-3.109 1.554c.637-2.246 1.39-4.453 2.066-6.68.676-2.227 2.143-4.204 2.78-6.45 1.429-4.434 2.26-9.06 3.61-13.437 3.553-8.657 5.793-17.736 9.23-26.412.714-2.227 1.023-4.569 1.795-6.776.772-2.208 1.68-4.358 2.645-6.488.483-1.075.907-2.15 1.351-3.244.444-1.095.715-2.208 1.062-3.321.773-2.208 1.777-4.32 2.665-6.488a100.016 100.016 0 0 0 4.556-13.226c1.313-4.472 2.53-8.983 3.861-13.437l1.275 2.572c-1.93-.69-3.862-1.497-5.792-2.265-.985-.364-1.931-.767-2.974-1.055-1.042-.288-1.93-.538-3.05-.807-1.93-.537-3.997-1.228-6.005-1.92l-6.004-1.919a2.27 2.27 0 0 1-1.585-1.668c-.185-.801.08-1.639.694-2.189a2.288 2.288 0 0 1 2.262-.462h.096l.097.25z"/><path id="Shape" fill="#0C1238" d="M167.26 25.415l-2.722 13.878-1.43 6.949a255.903 255.903 0 0 0-1.524 7.025c-.87 4.607-1.487 9.137-2.22 13.744a133.38 133.38 0 0 1-1.16 6.91c-.424 2.323-.849 4.665-1.331 6.988-1.93 9.348-3.862 18.677-5.792 27.967-1.931 9.29-3.862 18.581-5.985 27.795-.12.55-.458 1.03-.937 1.33-.48.3-1.061.395-1.612.263l-16.256-3.512c-5.368-1.286-10.754-2.553-16.199-3.57-5.444-1.018-10.831-2.266-16.237-3.417-5.406-1.152-10.793-2.419-16.237-3.379l-4.981-1.535c-1.603-.519-3.205-1.095-4.788-1.613a1.33 1.33 0 0 1-.781-.667 1.318 1.318 0 0 1-.069-1.022l4.499-13.187 2.22-6.546c.695-2.207 1.293-4.453 1.93-6.7 1.159-4.51 2.684-8.906 4.074-13.34l4.228-13.36 8.438-26.566c3.147-8.773 6.313-17.487 9.074-26.413a2.028 2.028 0 0 1 2.317-1.401c5.29 1.055 10.619 2.015 15.89 3.186 5.27 1.17 10.367 2.553 15.657 3.609l31.934 6.584zm-3.861 2.495l-30.409-5.47c-5.02-.96-10.194-1.594-15.194-2.477-5.001-.883-9.944-2.034-14.925-3.129l3.186-1.92c-3.166 8.754-6.12 17.565-9.113 26.356a817.72 817.72 0 0 0-4.769 13.091c-1.544 4.377-2.8 8.984-4.228 13.36l-4.17 13.303c-1.448 4.415-2.607 8.926-4.44 13.206l-1.391 3.206c-.405 1.094-.81 2.188-1.178 3.282l-2.046 6.661c-1.274 4.473-2.452 8.984-3.862 13.437l-1.776-3.494c1.603.5 3.244.94 4.846 1.478 1.603.538 3.186 1.075 4.769 1.69h-.328c5.367 1.382 10.792 2.437 16.237 3.436 2.722.48 5.425 1.074 8.128 1.631 2.703.557 5.425 1.113 8.109 1.747 5.387 1.324 10.87 2.054 16.334 2.975 5.464.922 10.773 2.534 16.14 3.84l-2.664 1.765c1.216-4.472 1.738-9.022 3.05-13.437 1.313-4.414 2.24-8.983 3.34-13.436 1.931-9.041 3.553-18.082 5.213-27.027.412-2.24.837-4.486 1.275-6.738.437-2.252.92-4.498 1.448-6.738 1.023-4.53 2.162-9.098 3.089-13.61l1.178-6.91 1.37-6.718 2.78-13.36z"/><path id="Shape" fill="#FFF" d="M20.251 12.861l116.962-8.139 10.155 144.254-116.961 8.138z"/><path id="Shape" fill="#948FFC" d="M9.702 8.772l118.4-7.797 2.793 41.908-118.401 7.799z"/><path id="Shape" fill="#FFF" d="M62.597 63.94l61.01-4.012"/><path id="Shape" fill="#0C1238" d="M62.481 62.212c5.078-.499 10.156-.902 15.253-1.094 2.574 0 5.148-.077 7.722-.23 2.549 0 5.078-.403 7.627-.595 5.058-.519 10.155-.768 15.252-.922 2.549 0 5.078-.384 7.607-.671 2.53-.288 5.078-.404 7.723-.5.46-.02.911.142 1.252.452.34.31.543.74.563 1.2a1.711 1.711 0 0 1-1.526 1.784c-5.058.576-10.155.922-15.252 1.075-5.097.154-10.155.71-15.252.807-5.098.096-10.195.518-15.272.96-2.53.21-5.078.21-7.723.364-1.274 0-2.53.23-3.861.346-1.333.115-2.549.25-3.862.46a1.748 1.748 0 0 1-1.633-.605 1.725 1.725 0 0 1-.29-1.708c.218-.58.73-1 1.344-1.104h.347l-.019-.019z"/><path id="Shape" fill="#FFF" d="M63.215 73.192l24.848-1.632"/><path id="Shape" fill="#0C1238" d="M63.099 71.464a39.708 39.708 0 0 1 6.198-.441c2.079.189 4.174.118 6.236-.211a32 32 0 0 1 6.217-.326 18.832 18.832 0 0 0 3.089-.365 23.922 23.922 0 0 1 3.108-.211 1.734 1.734 0 0 1 1.814 1.562 1.73 1.73 0 0 1-1.486 1.874h-.116c-2.042.38-4.12.541-6.197.48a51.634 51.634 0 0 1-6.217.21 35.456 35.456 0 0 0-6.217.365c-1.023.154-2.085 0-3.108 0a13.16 13.16 0 0 0-3.09.519 1.758 1.758 0 0 1-2.044-1.188 1.744 1.744 0 0 1 1.002-2.133h.251l.56-.135z"/><path id="Shape" fill="#FA8D8D" d="M44.97 63.114l-9.132 15.203 18.129-1.19-8.997-14.013z"/><path id="Shape" fill="#FFF" d="M64.624 94.345l53.365-3.512"/><path id="Shape" fill="#0C1238" d="M64.508 92.618c4.441-.442 8.882-.826 13.342-.96 2.22 0 4.46 0 6.68-.173 2.22-.172 4.44-.364 6.66-.518 4.441-.5 8.901-.691 13.361-.806 2.22 0 4.44-.346 6.642-.595 2.2-.25 4.46-.365 6.68-.46a1.74 1.74 0 0 1 1.882 1.583 1.737 1.737 0 0 1-1.593 1.871c-4.44.538-8.88.845-13.34.96-4.46.115-8.882.614-13.342.691-4.46.077-8.92.422-13.36.825-2.22.192-4.44.173-6.68.308-1.1 0-2.22.21-3.321.307-1.1.096-2.22.23-3.321.422a1.744 1.744 0 0 1-1.686-.554 1.72 1.72 0 0 1-.316-1.738 1.736 1.736 0 0 1 1.384-1.106h.116l.212-.057z"/><path id="Shape" fill="#FFF" d="M65.242 103.598l15.793-1.037"/><path id="Shape" fill="#0C1238" d="M65.126 101.87c1.268-.278 2.564-.4 3.862-.365 1.307.25 2.65.25 3.958 0a13.592 13.592 0 0 1 3.86-.192 6.988 6.988 0 0 0 1.932-.288 11.32 11.32 0 0 1 1.93-.134 1.752 1.752 0 0 1 1.63 1.548 1.747 1.747 0 0 1-1.244 1.869H80.9a11.397 11.397 0 0 1-3.861.326 21.166 21.166 0 0 1-3.978 0 14.272 14.272 0 0 0-3.861.211c-.643.046-1.288.046-1.93 0a5.82 5.82 0 0 0-1.931.442 1.76 1.76 0 0 1-2.233-.898 1.742 1.742 0 0 1 .765-2.27l.386-.115.87-.134z"/><ellipse id="Oval" cx="46.495" cy="101.678" fill="#FA8D8D" rx="7.993" ry="7.947"/><path id="Shape" fill="#FFF" d="M66.651 124.77l58.674-3.877"/><path id="Shape" fill="#0C1238" d="M66.574 123.043c4.885-.48 9.77-.883 14.654-1.075 2.452 0 4.904-.116 7.356-.212 2.452-.096 4.885-.383 7.337-.556 4.884-.519 9.77-.749 14.673-.902 2.452 0 4.885-.365 7.317-.634 2.433-.269 4.885-.384 7.337-.48a1.734 1.734 0 0 1 1.765 1.583 1.73 1.73 0 0 1-1.475 1.853c-4.866.576-9.654.902-14.654 1.037-5 .134-9.789.69-14.693.787-4.904.096-9.789.48-14.673.902-2.433.211-4.904.211-7.337.365-1.235 0-2.452.21-3.668.326-1.216.115-2.433.25-3.65.46a1.756 1.756 0 0 1-1.93-1.42 1.71 1.71 0 0 1 1.41-1.92h.231v-.114z"/><path id="Shape" fill="#FFF" d="M67.27 134.022l24.828-1.65"/><path id="Shape" fill="#0C1238" d="M67.153 132.295a37.163 37.163 0 0 1 6.198-.519c2.073.17 4.16.1 6.217-.21a32.097 32.097 0 0 1 6.313-.346 18.58 18.58 0 0 0 3.09-.365 28.156 28.156 0 0 1 3.108-.192 1.734 1.734 0 0 1 1.712 1.554 1.729 1.729 0 0 1-1.365 1.863h-.116c-2.04.39-4.12.55-6.197.48a47.963 47.963 0 0 1-6.217.23 35.34 35.34 0 0 0-6.217.346c-1.042.153-2.085 0-3.128 0-1.04.042-2.07.21-3.07.499a1.746 1.746 0 0 1-1.938-.086 1.722 1.722 0 0 1-.65-1.818 1.734 1.734 0 0 1 1.45-1.283h.231l.58-.153z"/><path id="Shape" fill="#FA8D8D" d="M41.035 124.77l13.967-.921.926 13.888-13.968.919z"/><path id="Shape" fill="#0C1238" d="M147.972 150.722l-29.52 2.17c-4.962.326-9.982.518-14.847.96l-14.577 1.458-7.336.749-7.395.556-14.847 1.075-29.713 1.747a2.524 2.524 0 0 1-2.665-2.361c-.695-12.016-1.525-23.994-2.143-36.01L23 85.035c-.387-12.017-1.526-23.995-2.144-35.992-.617-11.997-1.235-24.09-2.258-35.991a1.346 1.346 0 0 1 1.235-1.44c9.654-.69 19.462-1.152 29.192-1.804l14.596-.922 14.538-1.4c9.654-.826 19.423-1.46 29.154-2.19l29.153-2.149a2.14 2.14 0 0 1 2.279 1.92c.502 6.046.984 12.112 1.409 18.178.425 6.065.637 12.15.965 18.197l.464 9.08.618 9.117 1.235 18.217c.869 12.208.946 24.013 1.93 36.24l2.607 36.625zm-3.436-2.917l-2.8-35.8c-.753-11.824-2.355-23.975-3.031-35.684l-2.143-35.358c-.348-5.912-.792-11.824-1.043-17.756-.25-5.931-.54-11.843-.85-17.794l2.125 1.92-29.154 2.265c-9.653.69-19.423 1.555-29.153 2.13-4.866.23-9.77 0-14.616.423l-14.576 1.286-14.558 1.286c-4.865.384-9.653.998-14.577 1.152l2.645-3.014c.387 6.008.387 12.035.908 18.024.521 5.99.946 11.978 1.293 17.986.348 6.009.773 11.998 1.043 18.006.27 6.008.869 11.978 1.467 17.967 1.159 11.978.946 24.032 1.777 36.03.502 5.988.617 11.997.83 18.005.212 6.008.425 12.035.83 18.024l-1.487-1.42 14.442-1.037 14.384-1.152 14.325-1.132 7.183-.518 7.24-.346 14.518-.672c4.846-.268 9.519-.73 14.268-1.094l28.71-1.727z"/><path id="Shape" fill="#FFF" d="M47.596 39.715a13.523 13.523 0 0 0 4.807-3.11 26.068 26.068 0 0 0 3.861-4.53 30.52 30.52 0 0 0 2.8-5.201 19.492 19.492 0 0 0 1.564-5.586l.579.96c-.65-.3-1.398-.3-2.047 0a4.169 4.169 0 0 0-1.486 1.919 15.682 15.682 0 0 0-1.178 5.49 17.33 17.33 0 0 0 0 2.84c.088.88.393 1.724.888 2.458a5.799 5.799 0 0 0 4.46 2.553 16.202 16.202 0 0 0 10.619-3.475 14.354 14.354 0 0 0 3.861-4.088 6.859 6.859 0 0 0 1.004-5.068l1.217.557a5.29 5.29 0 0 0-2.877 3.11 3.463 3.463 0 0 0 1.255 3.666 6.397 6.397 0 0 0 4.228 1.267 9.693 9.693 0 0 0 4.46-1.401 45.981 45.981 0 0 1 4.576-2.438 7.762 7.762 0 0 1 2.78-.557 7.763 7.763 0 0 1 2.76.5c1.719.575 3.206 1.4 4.712 1.919 1.356.627 2.9.723 4.324.268a.873.873 0 0 1 1.14.461.9.9 0 0 1-.464 1.133 7.764 7.764 0 0 1-5.618-.173c-1.68-.614-3.167-1.42-4.672-1.92a5.823 5.823 0 0 0-4.325 0 40.338 40.338 0 0 0-4.383 2.285 9.7 9.7 0 0 1-10.6-.116 5.186 5.186 0 0 1-1.93-5.432 7.097 7.097 0 0 1 3.745-4.223.91.91 0 0 1 1.217.384.802.802 0 0 1 0 .192 8.405 8.405 0 0 1-1.159 6.411 16.145 16.145 0 0 1-4.363 4.55 17.911 17.911 0 0 1-11.816 3.627 7.732 7.732 0 0 1-5.56-3.224 8.275 8.275 0 0 1-.773-1.478 9.774 9.774 0 0 1-.212-1.613 16.776 16.776 0 0 1 0-3.071c.02-2.094.44-4.165 1.236-6.104a5.476 5.476 0 0 1 2.143-2.668 4.075 4.075 0 0 1 3.59-.154.748.748 0 0 1 .484.787 21.767 21.767 0 0 1-1.738 6.104 33.018 33.018 0 0 1-3.05 5.47 29.135 29.135 0 0 1-3.997 4.857 16.189 16.189 0 0 1-5.425 3.513.875.875 0 0 1-1.12-.518.867.867 0 0 1 .521-1.114l-.038-.019z"/></g></g></svg>