<?xml version="1.0" encoding="utf-8"?>
<!-- Generator: Adobe Illustrator 22.1.0, SVG Export Plug-In . SVG Version: 6.00 Build 0)  -->
<svg version="1.1" id="Layer_1" xmlns="http://www.w3.org/2000/svg" xmlns:xlink="http://www.w3.org/1999/xlink" x="0px" y="0px"
	 viewBox="0 0 200 74.5" style="enable-background:new 0 0 200 74.5;" xml:space="preserve">
<style type="text/css">
	.st0{fill:#FFFFFF;}
</style>
<g>
	<path class="st0" d="M197.6,24.2h-6.5c-0.5,0-0.9,0.4-0.9,0.9l0,10.7c0,3.9,0,10.8-5.7,10.8c-4.1,0-5.5-3.1-5.5-7.4l0-9.3
		c0-7.2-5.1-7.1-10.9-5.8c-0.4,0.1-0.7,0.4-0.7,0.9v3.5c0,0.5,0.4,0.9,0.8,0.9c2.1,0.1,2.5,1.7,2.5,4v6.1c0,8.8,3.5,14.4,12.2,14.2
		c3.6,0,6.5-0.9,7.7-3.6l0,3.4c0,3.6-1.4,5.3-1.9,5.8c-2.7,2.8-8.5,2.9-14.1-0.5c-0.6-0.4-1.3,0.1-1.3,0.7v5.7
		c0,0.3,0.2,0.6,0.5,0.8c7.6,4.1,16.2,3.3,20.8-1.5c3.8-3.9,3.9-9.2,3.9-11l0-28.1C198.5,24.6,198.1,24.2,197.6,24.2z"/>
	<path class="st0" d="M89.7,23.3c-3.8,0-7.2,1.5-9.1,4.9c0-5.2-6-4.1-10.3-3.3c-0.4,0.1-0.7,0.4-0.7,0.9v3.3c0,0.5,0.4,0.9,0.8,0.9
		c2.4,0.1,2.3,1.3,2.3,4.1l0,17.8c0,0.5,0.4,0.9,0.9,0.9h6.6c0.5,0,0.9-0.4,0.9-0.9V36.2c0-4,2.9-6.4,6-6.3c3,0,5.6,2.1,5.5,6.1
		l0,15.8c0,0.5,0.4,0.9,0.9,0.9h6.5c0.5,0,0.9-0.4,0.9-0.9l0-15.8C101.2,28.9,97.8,23.3,89.7,23.3z"/>
	<path class="st0" d="M55.4,23.3c-4.2,0-7.8,1.5-10.6,4.4c-2.8,2.9-4.2,6.5-4.2,10.8c0,4.2,1.4,7.8,4.2,10.6
		c2.8,2.9,6.6,4.3,11.3,4.3c4.7,0,8.6-1.7,11.6-5c0.3-0.3,0.3-0.8,0-1.1l-3.4-3.5c-0.3-0.3-0.9-0.3-1.2,0c-2,1.7-4.3,2.6-6.7,2.6
		c-2.5,0-4.5-0.7-6-2c-1.3-1.2-2-2.7-2.2-4.5h20.7c0.4,0,0.7-0.3,0.7-0.6c0-5.2-1.4-9.2-4.1-11.9C62.7,24.7,59.3,23.3,55.4,23.3z
		 M48.8,34.1c0.6-1.4,1.4-2.4,2.4-3v0c2.5-1.5,5.7-1.6,8.2,0c1,0.6,1.8,1.7,2.2,3H48.8z"/>
	<path class="st0" d="M168.5,46.1C168.4,46.1,168.4,46.2,168.5,46.1c-1.9,0.4-3.5-1-3.5-2.8l0-34.5c0-0.8-0.6-1.4-1.4-1.4h-6.8
		c-0.5,0-1,0.3-1.3,0.8l-10.8,22.1c-0.2,0.3-0.7,0.3-0.8,0L133,8.2c-0.2-0.5-0.7-0.8-1.2-0.8h-6.8c-0.8,0-1.4,0.6-1.4,1.4v42.5
		c0,0.8,0.6,1.4,1.4,1.4h2.1h3.4c0.8,0,1.4-0.6,1.4-1.4V22.4l9.6,20.3c0.2,0.5,0.7,0.8,1.3,0.8h3.1c0.5,0,1-0.3,1.3-0.8l9.6-20.1
		l0,17.1l0,6.3c0,3,1.9,5.7,4.7,6.8c0.6,0.2,1.2,0.4,1.8,0.5c2.2,0.5,4.1,0.2,6-0.6c0.3-0.1,0.4-0.4,0.4-0.7l-0.1-5
		C169.5,46.4,169,46,168.5,46.1z"/>
	<path class="st0" d="M45.1,17.9"/>
	<g>
		<path class="st0" d="M119.9,46.4c-4.2,1-8-0.2-8-5.4v-9.6c0-0.8,0.6-1.4,1.4-1.4h5.4c0.5,0,0.9-0.4,0.9-0.9v-3.9
			c0-0.5-0.4-0.9-0.9-0.9H112V21c0-1.1,0-3.8-1.9-6.4c-2.4-3.2-6.4-4.5-10-3.9c-0.8,0.1-4.6,0.8-6.7,4.4c-1.4,2.3-1.3,4.7-1.1,6.2
			c0,0.2,0.2,0.4,0.5,0.4h4.3c0.3,0,0.5-0.2,0.5-0.5c-0.1-2.3,1-4,2.4-4.4c0.9-0.3,1.9,0,2.6,0.6c1,0.8,1,1.9,1,3.7v2.4v18
			c0,3.9,0.9,6.7,2.5,8.6c3,3.6,8.2,4.1,14.2,2.9c0.4-0.1,0.7-0.5,0.7-0.9v-4.6C121.1,46.7,120.5,46.3,119.9,46.4z"/>
	</g>
	<path class="st0" d="M19.8,11.1c1.1,0,6.5-0.2,10.2,3.9c3,3.3,3,7.3,3,7.9c0,0.6-0.1,4.6-3.2,7.9c-4.4,4.7-11,3.6-11.5,3.5
		c0-3.3,0-6.4,0-9.7c0-0.3-0.2-0.6-0.4-0.8l-3.5-2.3c-0.1-0.1-0.3-0.1-0.5,0l-3.5,2.3c-0.3,0.2-0.4,0.5-0.4,0.8v1.8v25.4
		c0,0.5,0.4,0.9,0.9,0.9h6.5c0.5,0,0.9-0.4,0.9-0.9v-9.7l8.6,7.6c1.8,1.8,3.9,3,6.4,3.5c2.3,0.5,4.4,0.3,6.3-0.7
		c0.3-0.1,0.5-0.4,0.5-0.8l-0.1-5.3c0-0.5-0.5-0.9-1-0.8c-2.9,0.7-5.3,0.1-7.3-1.9l-3.7-3.4c1.6-0.5,4.2-1.4,6.6-3.5
		c0.7-0.6,6.8-5.8,6.6-14.4C41,13,33.2,7.7,31.8,6.8c-5.2-3.3-10.4-3.2-12-3.2C9,3.6,2.2,11.6,0.4,14.7c-0.2,0.3-0.1,0.6,0.2,0.8
		c1.7,1.4,3.5,2.8,5.2,4.2c0.3,0.2,0.8,0.2,1-0.2C8,17.5,12.5,11.3,19.8,11.1z"/>
</g>
</svg>
