<?xml version="1.0" encoding="utf-8"?>
<!-- Generator: Adobe Illustrator 22.1.0, SVG Export Plug-In . SVG Version: 6.00 Build 0)  -->
<svg version="1.1" id="Layer_1" xmlns="http://www.w3.org/2000/svg" xmlns:xlink="http://www.w3.org/1999/xlink" x="0px" y="0px"
	 viewBox="0 0 200 200" style="enable-background:new 0 0 200 200;" xml:space="preserve">
<style type="text/css">
	.st0{fill:#FFFFFF;}
</style>
<g>
	<path class="st0" d="M149.8,21.5c7.8,0,15.2,3.1,20.8,8.7c5.6,5.6,8.7,13,8.7,20.8v97.8c0,7.8-3.1,15.2-8.7,20.8
		c-5.6,5.6-13,8.7-20.8,8.7H52c-7.8,0-15.2-3.1-20.8-8.7c-5.6-5.6-8.7-13-8.7-20.8V51c0-7.8,3.1-15.2,8.7-20.8
		c5.6-5.6,13-8.7,20.8-8.7H149.8 M149.8,3.3H52C25.7,3.3,4.3,24.7,4.3,51v97.8c0,26.2,21.5,47.7,47.7,47.7h97.8
		c26.2,0,47.7-21.5,47.7-47.7V51C197.5,24.7,176,3.3,149.8,3.3L149.8,3.3z"/>
	<g>
		<path class="st0" d="M150.6,76.2"/>
		<path class="st0" d="M94.4,61.1c2.4-0.1,14.5-0.5,22.8,8.7c6.6,7.4,6.7,16.1,6.7,17.5c0,1.3-0.2,10.3-7.1,17.6
			c-9.9,10.5-24.5,8-25.6,7.8c0-7.2-0.1-14.2-0.1-21.5c0-0.7-0.3-1.3-0.9-1.7l-7.8-5.1c-0.3-0.2-0.7-0.2-1,0l-7.8,5.1
			c-0.6,0.4-0.9,1-0.9,1.7v3.9v56.5c0,1.1,0.9,2,2,2H89c1.1,0,2-0.9,2-2V130l19.1,17c4,4,8.8,6.6,14.3,7.8c5.1,1.1,9.7,0.6,14-1.5
			c0.7-0.3,1.1-1,1.1-1.7l-0.2-11.8c0-1.2-1.1-2.1-2.3-1.8c-6.4,1.6-11.8,0.2-16.3-4.2l-8.2-7.6c3.6-1.1,9.3-3.2,14.8-7.8
			c1.5-1.3,15.1-13,14.7-31.9c-0.4-21.1-17.7-32.8-20.9-34.9c-11.6-7.4-23.2-7.1-26.7-7.1C70.5,44.4,55.3,62.2,51.3,69
			c-0.4,0.6-0.2,1.4,0.4,1.9c3.9,3.1,7.7,6.2,11.6,9.3c0.7,0.6,1.7,0.4,2.2-0.4C68.3,75.3,78.2,61.6,94.4,61.1z"/>
	</g>
</g>
</svg>
