<?xml version="1.0" encoding="utf-8"?>
<!-- Generator: Adobe Illustrator 22.1.0, SVG Export Plug-In . SVG Version: 6.00 Build 0)  -->
<svg version="1.1" id="Layer_1" xmlns="http://www.w3.org/2000/svg" xmlns:xlink="http://www.w3.org/1999/xlink" x="0px" y="0px"
	 viewBox="0 0 200 74.5" style="enable-background:new 0 0 200 74.5;" xml:space="preserve">
<style type="text/css">
	.st0{fill:#F25F48;}
</style>
<g>
	<path class="st0" d="M194.2,27.2h-6.3c-0.5,0-0.8,0.4-0.8,0.8l0,10.3c0,3.7,0,10.4-5.5,10.4c-4,0-5.4-3-5.4-7.2l0-9
		c0-6.9-5-6.9-10.5-5.6c-0.4,0.1-0.7,0.4-0.7,0.8v3.4c0,0.4,0.3,0.8,0.8,0.8c2,0.1,2.4,1.6,2.4,3.8v5.9c0,8.5,3.3,13.9,11.8,13.7
		c3.5,0,6.2-0.9,7.5-3.5l0,3.3c0,3.5-1.4,5.1-1.9,5.6c-2.6,2.7-8.2,2.8-13.7-0.5c-0.6-0.3-1.3,0-1.3,0.7v5.5c0,0.3,0.2,0.6,0.4,0.7
		c7.4,4,15.6,3.2,20.1-1.4c3.7-3.8,3.8-8.9,3.7-10.6l0-27.2C195,27.6,194.6,27.2,194.2,27.2z"/>
	<path class="st0" d="M89.9,26.4c-3.7,0-7,1.4-8.7,4.7c0-5.1-5.8-3.9-9.9-3.2c-0.4,0.1-0.7,0.4-0.7,0.8v3.2c0,0.5,0.4,0.8,0.8,0.8
		c2.3,0.1,2.2,1.2,2.2,4l0,17.2c0,0.5,0.4,0.8,0.8,0.8h6.4c0.5,0,0.8-0.4,0.8-0.8V38.8c0-3.9,2.8-6.2,5.8-6c2.9,0,5.4,2,5.4,5.9
		l0,15.3c0,0.5,0.4,0.8,0.8,0.8h6.3c0.5,0,0.8-0.4,0.8-0.8l0-15.3C101,31.7,97.8,26.4,89.9,26.4z"/>
	<path class="st0" d="M56.7,26.4c-4.1,0-7.5,1.4-10.2,4.3c-2.7,2.8-4,6.3-4,10.4c0,4.1,1.4,7.5,4,10.3c2.7,2.8,6.4,4.2,10.9,4.2
		c4.6,0,8.3-1.6,11.2-4.8c0.3-0.3,0.3-0.8,0-1.1l-3.3-3.3c-0.3-0.3-0.8-0.3-1.2,0c-1.9,1.7-4.1,2.5-6.5,2.5c-2.4,0-4.4-0.7-5.8-2
		c-1.3-1.2-2-2.6-2.1-4.4h20c0.4,0,0.6-0.3,0.6-0.6c0-5-1.3-8.9-4-11.5C63.8,27.7,60.6,26.4,56.7,26.4z M50.4,36.8
		c0.5-1.3,1.3-2.3,2.3-2.9v0c2.4-1.5,5.5-1.5,7.9,0c1,0.6,1.7,1.6,2.1,2.9H50.4z"/>
	<path class="st0" d="M166,48.4C166,48.4,165.9,48.4,166,48.4c-1.8,0.4-3.4-0.9-3.4-2.7l0-33.4c0-0.7-0.6-1.3-1.3-1.3h-6.6
		c-0.5,0-1,0.3-1.2,0.8L143,33.1c-0.2,0.3-0.6,0.3-0.8,0l-10.5-21.4c-0.2-0.5-0.7-0.8-1.2-0.8h-6.6c-0.7,0-1.3,0.6-1.3,1.3v41
		c0,0.7,0.6,1.3,1.3,1.3h2h3.3c0.7,0,1.3-0.6,1.3-1.3V25.5l9.3,19.6c0.2,0.5,0.7,0.8,1.2,0.8h3c0.5,0,1-0.3,1.2-0.8l9.3-19.4l0,16.5
		l0,6.1c0,2.9,1.8,5.5,4.5,6.5c0.6,0.2,1.1,0.4,1.7,0.5c2.1,0.4,4,0.2,5.7-0.6c0.3-0.1,0.4-0.4,0.4-0.7l-0.1-4.8
		C167,48.7,166.5,48.3,166,48.4z"/>
	<path class="st0" d="M46.8,21.2"/>
	<g>
		<path class="st0" d="M119.1,48.7c-4,0.9-7.7-0.2-7.7-5.2v-9.3c0-0.7,0.6-1.3,1.3-1.3h5.2c0.5,0,0.9-0.4,0.9-0.9v-3.8
			c0-0.5-0.4-0.9-0.9-0.9h-6.6v-3.2c0-1,0-3.7-1.8-6.2c-2.3-3.1-6.2-4.4-9.6-3.8c-0.8,0.1-4.4,0.8-6.4,4.2c-1.3,2.2-1.3,4.5-1,6
			c0,0.2,0.2,0.4,0.5,0.4h4.2c0.3,0,0.5-0.2,0.5-0.5c-0.1-2.2,0.9-3.9,2.3-4.3c0.8-0.2,1.8,0,2.6,0.6c1,0.8,0.9,1.8,0.9,3.5v2.3
			v17.4c0,3.7,0.9,6.5,2.4,8.3c2.9,3.5,8,4,13.7,2.8c0.4-0.1,0.7-0.5,0.7-0.9v-4.5C120.2,49,119.7,48.6,119.1,48.7z"/>
	</g>
	<path class="st0" d="M22.4,14.6c1.1,0,6.3-0.2,9.9,3.8c2.9,3.2,2.9,7,2.9,7.6c0,0.6-0.1,4.5-3.1,7.6c-4.3,4.5-10.6,3.5-11.1,3.4
		c0-3.1,0-6.2,0-9.3c0-0.3-0.1-0.6-0.4-0.7l-3.4-2.2c-0.1-0.1-0.3-0.1-0.4,0L13.3,27c-0.2,0.2-0.4,0.4-0.4,0.7v1.7v24.5
		c0,0.5,0.4,0.9,0.9,0.9H20c0.5,0,0.9-0.4,0.9-0.9v-9.4l8.3,7.4c1.7,1.7,3.8,2.9,6.2,3.4c2.2,0.5,4.2,0.3,6.1-0.7
		c0.3-0.1,0.5-0.4,0.5-0.7l-0.1-5.1c0-0.5-0.5-0.9-1-0.8c-2.8,0.7-5.1,0.1-7.1-1.8l-3.5-3.3c1.6-0.5,4-1.4,6.4-3.4
		c0.7-0.6,6.6-5.6,6.4-13.9c-0.2-9.2-7.7-14.2-9.1-15.1c-5-3.2-10.1-3.1-11.6-3.1C12,7.3,5.4,15,3.6,18c-0.2,0.3-0.1,0.6,0.2,0.8
		c1.7,1.3,3.4,2.7,5,4c0.3,0.2,0.7,0.2,0.9-0.2C11,20.7,15.3,14.8,22.4,14.6z"/>
</g>
</svg>
