<?xml version="1.0" encoding="utf-8"?>
<!-- Generator: Adobe Illustrator 22.1.0, SVG Export Plug-In . SVG Version: 6.00 Build 0)  -->
<svg version="1.1" id="Layer_2" xmlns="http://www.w3.org/2000/svg" xmlns:xlink="http://www.w3.org/1999/xlink" x="0px" y="0px"
	 viewBox="0 0 535 187" style="enable-background:new 0 0 535 187;" xml:space="preserve">
<style type="text/css">
	.st0{fill:#0162BD;}
</style>
<path class="st0" d="M513.7,67.9h-16.6c-1.2,0-2.2,1-2.2,2.2l0.1,27.4c0,9.9,0,27.6-14.5,27.6c-10.5,0-14.2-7.9-14.2-19.1l-0.1-23.9
	c0-18.4-13.1-18.2-27.9-14.9c-1,0.2-1.7,1.1-1.7,2.2v8.9c0,1.2,0.9,2.2,2.1,2.2c5.4,0.2,6.4,4.3,6.4,10.2v15.6
	c0,22.4,8.9,36.8,31.3,36.3c9.2,0,16.5-2.4,19.8-9.2l-0.1,8.7c0.1,9.3-3.7,13.6-4.9,14.9c-7,7.1-21.8,7.4-36.2-1.4
	c-1.5-0.9-3.4,0.1-3.4,1.9v14.5c0,0.8,0.4,1.6,1.2,2c19.6,10.6,41.4,8.4,53.4-3.8c9.7-9.9,10-23.7,9.9-28.1l0-72.1
	C515.9,68.9,514.9,67.9,513.7,67.9"/>
<path class="st0" d="M237.3,65.6c-9.8,0-18.5,3.8-23.2,12.5c0-13.4-15.4-10.5-26.3-8.4c-1.1,0.2-1.8,1.1-1.8,2.2v8.4
	c0,1.2,1,2.2,2.2,2.2c6.1,0.2,5.9,3.3,5.9,10.6v45.5c0,1.2,1,2.2,2.2,2.2h16.9c1.2,0,2.2-1,2.2-2.2v-40c0-10.2,7.5-16.5,15.4-16
	c7.8,0,14.4,5.3,14.2,15.6l0,40.5c0,1.2,1,2.2,2.2,2.2H264c1.2,0,2.2-1,2.2-2.2l0-40.5C266.7,79.8,258,65.6,237.3,65.6"/>
<path class="st0" d="M149.2,65.6c-10.8,0-19.9,3.8-27,11.3c-7.1,7.5-10.7,16.7-10.7,27.5c0,10.8,3.6,20,10.7,27.3
	c7.2,7.3,16.9,11,28.8,11c12.1,0,22.1-4.3,29.8-12.7c0.7-0.8,0.7-2.1,0-2.9l-8.8-8.8c-0.8-0.8-2.2-0.9-3.1-0.1
	c-5.1,4.5-10.9,6.7-17.1,6.7c-6.5,0-11.6-1.8-15.3-5.2c-3.4-3.1-5.2-6.9-5.6-11.6h52.9c0.9,0,1.7-0.7,1.7-1.6
	c0-13.2-3.5-23.5-10.5-30.4C168.1,69.2,159.4,65.6,149.2,65.6 M132.3,93.3c1.5-3.5,3.5-6.1,6.2-7.8v0c6.4-4,14.6-4.1,21,0
	c2.6,1.7,4.5,4.3,5.6,7.8H132.3z"/>
<path class="st0" d="M439,124.1c-0.1,0-0.2,0-0.2,0.1c-4.5,1-8.8-2.5-8.8-7.2l-0.1-88.5c0-2-1.6-3.6-3.6-3.6h-17.4
	c-1.4,0-2.6,0.8-3.2,2L378,83.6c-0.4,0.9-1.7,0.9-2.1,0L348,26.9c-0.6-1.2-1.8-2-3.2-2h-17.4c-2,0-3.6,1.6-3.6,3.6v108.9
	c0,2,1.6,3.6,3.6,3.6h5.4h8.7c2,0,3.6-1.6,3.6-3.6v-74l24.6,51.9c0.6,1.2,1.8,2,3.2,2h7.9c1.4,0,2.6-0.8,3.2-2l24.6-51.6l0.1,43.8
	l0,16.1c0,7.7,4.8,14.6,11.9,17.3c1.5,0.6,3,1,4.6,1.4c5.5,1.2,10.6,0.6,15.3-1.7c0.7-0.3,1.1-1.1,1.1-1.8l-0.2-12.8
	C441.5,124.7,440.3,123.8,439,124.1"/>
<path class="st0" d="M314.6,124.8c-10.7,2.5-20.4-0.4-20.4-13.9V86.3c0-2,1.6-3.6,3.6-3.6h13.9c1.3,0,2.4-1.1,2.4-2.4V70.3
	c0-1.3-1.1-2.4-2.4-2.4h-17.4v-8.4c0.1-2.7-0.1-9.8-4.9-16.4c-6-8.2-16.5-11.5-25.5-10c-2,0.3-11.7,2-17.1,11.2
	c-3.5,5.9-3.4,11.9-2.8,16c0.1,0.6,0.6,1,1.2,1h11.1c0.7,0,1.3-0.6,1.3-1.3c-0.2-5.8,2.5-10.3,6.1-11.4c2.2-0.7,4.9,0,6.8,1.5
	c2.6,2.1,2.5,4.9,2.5,9.4v6.2v46c0,9.9,2.4,17.1,6.4,22c7.6,9.2,21.1,10.6,36.3,7.5c1.1-0.2,1.9-1.2,1.9-2.3v-11.9
	C317.5,125.6,316.1,124.5,314.6,124.8"/>
<path class="st0" d="M58,34.3c2.8-0.1,16.7-0.6,26.2,10c7.6,8.5,7.7,18.6,7.7,20.2c0,1.5-0.3,11.8-8.2,20.3
	c-11.4,12.1-28.2,9.3-29.5,9c0-8.3-0.1-16.3-0.1-24.7c0-0.8-0.4-1.5-1-1.9l-9-5.9c-0.4-0.2-0.8-0.2-1.2,0l-9,5.9
	c-0.6,0.4-1,1.2-1,1.9v4.5v65.1c0,1.3,1,2.3,2.3,2.3h16.6c1.3,0,2.3-1,2.3-2.3v-24.9l22,19.5c4.6,4.6,10.1,7.6,16.5,9
	c5.9,1.3,11.2,0.7,16.1-1.7c0.8-0.4,1.2-1.1,1.2-2l-0.2-13.6c0-1.4-1.3-2.4-2.6-2.1c-7.3,1.8-13.6,0.2-18.8-4.8l-9.4-8.8
	c4.2-1.2,10.7-3.7,17-9c1.8-1.5,17.4-15,17-36.8c-0.5-24.3-20.4-37.8-24.1-40.2C75.4,14.8,62,15.1,58,15.1
	C30.4,15,12.9,35.5,8.3,43.4c-0.4,0.7-0.2,1.6,0.4,2.2l13.3,10.7c0.8,0.6,2,0.4,2.5-0.4C27.9,50.6,39.3,34.9,58,34.3"/>
</svg>
