<svg xmlns="http://www.w3.org/2000/svg" fill-rule="evenodd" stroke-miterlimit="1.414" viewBox="0 0 50 50" clip-rule="evenodd" stroke-linejoin="round"><path fill="#3b2d6f" d="M0 0h50v50H0z"/><g fill-rule="nonzero"><g fill="#c9cdc6"><path d="M34.782 30.698l3.34-3.753-3.34-3.754h3.524l1.654 1.83 1.593-1.822h3.4l-3.323 3.74 3.37 3.76h-3.538l-1.64-1.84L38.2 30.7h-3.42z"/><path d="M34.782 21.51H31v1.68h3.782v2.537H31v2.328h3.782v2.643H28.22V18.873h6.562v2.636z"/></g><path fill="#fdfcfb" d="M25.45 18.873v4.84h-.03c-.613-.705-1.38-.95-2.267-.95-1.82 0-3.19 1.237-3.673 2.873-.55-1.802-1.964-2.907-4.063-2.907-1.705 0-3.05.76-3.753 2.01v-1.55H8.14v-1.68h3.846v-2.64H5v11.82h3.14v-4.97h3.13a4.747 4.747 0 0 0-.142 1.167c0 2.467 1.884 4.198 4.29 4.198 2.02 0 3.354-.95 4.06-2.68h-2.693c-.364.52-.64.673-1.368.673-.844 0-1.572-.735-1.572-1.61h5.48c.238 1.96 1.765 3.65 3.86 3.65.902 0 1.73-.444 2.235-1.194h.03v.765h2.77V18.87h-2.77zm-11.517 6.89c.174-.75.757-1.242 1.484-1.242.8 0 1.353.48 1.5 1.25h-2.984zm9.837 3.134c-1.02 0-1.654-.95-1.654-1.944 0-1.06.55-2.08 1.654-2.08 1.144 0 1.6 1.02 1.6 2.08 0 1.007-.483 1.944-1.6 1.944z"/></g></svg>