<svg xmlns="http://www.w3.org/2000/svg" viewBox="0 0 32 32"><title>UPS</title><path fill="#300" d="M16 .076c-5.258 0-9.594 1-13.414 3.025v15.635c0 3.34 1.256 6.135 3.633 8.084 2.142 1.756 9.002 4.766 9.78 5.104.778-.338 7.638-3.348 9.78-5.105 2.378-1.95 3.634-4.745 3.634-8.085V3.1C25.594 1.077 21.258.077 16 .077z"/><radialGradient id="a" cx="6702.718" cy="948.592" r="81.609" gradientTransform="matrix(0 .535 .2675 0 -246.872 -3580.14)" gradientUnits="userSpaceOnUse"><stop offset="0" stop-color="#FFDC00"/><stop offset=".35" stop-color="#FFBE00"/><stop offset="1" stop-color="#C86E14"/></radialGradient><path fill="url(#a)" d="M16 31.63c.772-.336 7.492-3.284 9.607-5.018 2.312-1.895 3.533-4.618 3.533-7.872V3.27C25.49 1.335 21.07.354 16 .354s-9.49.98-13.14 2.916v15.47c0 3.254 1.22 5.977 3.532 7.872 2.116 1.733 8.836 4.682 9.608 5.018z"/><path fill="#C86E14" d="M24.388 29.854v1.342h.242v-.56h.034l.365.56h.292l-.404-.59c.177-.043.297-.172.297-.358 0-.19-.118-.394-.447-.394h-.38zm.353.196c.207 0 .234.1.234.188 0 .126-.054.21-.314.21h-.03v-.398h.11zm.95.48c0 .498-.408.906-.91.906s-.91-.408-.91-.907c0-.502.41-.912.91-.912.502 0 .91.41.91.91m-.912-1.105c-.608 0-1.102.498-1.102 1.106 0 .607.495 1.1 1.102 1.1.61 0 1.105-.493 1.105-1.1s-.494-1.107-1.105-1.107"/><radialGradient id="b" cx="-346.85" cy="615.048" r="48.135" gradientTransform="matrix(0 .9 .45 0 -269.885 317.955)" gradientUnits="userSpaceOnUse"><stop offset="0" stop-color="#5C3333"/><stop offset=".35" stop-color="#471919"/><stop offset=".85" stop-color="#300"/></radialGradient><path fill="url(#b)" d="M4.067 9.89C9.71 4.715 16.54 3.347 22.907 3.347c1.717 0 3.403.1 5.026.25V18.74c0 2.91-1.055 5.26-3.093 6.94-1.82 1.497-7.308 3.956-8.84 4.63-1.552-.684-7.054-3.174-8.843-4.63-2.025-1.65-3.09-4.058-3.09-6.94V9.89zm1.167 7.93c0 2.422 1.147 3.65 3.41 3.65 1.398 0 2.57-.326 3.444-.92v-9.918H9.806v8.617c-.25.17-.618.278-1.082.278-1.048 0-1.205-.96-1.205-1.61v-7.287H5.233v7.19m10.314 3.48c.23.067.56.13 1.03.13 2.537 0 3.993-2.285 3.993-5.625 0-3.333-1.498-5.403-4.227-5.403-1.247 0-2.253.278-3.08.813v14.9h2.286V21.3zm0-1.868c.164.06.432.138.742.138 1.316 0 1.944-1.207 1.944-3.706 0-2.56-.55-3.62-1.876-3.62-.31 0-.624.073-.81.165v7.022zm5.54-6.05c.004 1.215.343 2.125 2.228 3.23 1.005.592 1.41.98 1.428 1.7.02.796-.532 1.277-1.37 1.273-.73-.005-1.603-.41-2.186-.93v2.105c.716.427 1.61.71 2.513.71 2.26 0 3.268-1.597 3.31-3.058.045-1.333-.324-2.342-2.234-3.465-.853-.5-1.526-.83-1.504-1.66.022-.813.697-1.098 1.345-1.092.8.007 1.57.45 2.048.94v-1.988c-.402-.31-1.253-.78-2.51-.742-1.503.04-3.076 1.128-3.066 2.976"/><radialGradient id="c" cx="-73.103" cy="259.398" r="43.574" gradientTransform="matrix(0 1 .7 0 -174.704 78.887)" gradientUnits="userSpaceOnUse"><stop offset="0" stop-color="#FFDC00"/><stop offset=".35" stop-color="#FFBE00"/><stop offset="1" stop-color="#C86E14"/></radialGradient><path fill="url(#c)" d="M24.744 18.31c-.017-.717-.422-1.106-1.428-1.697-1.885-1.106-2.224-2.016-2.227-3.232-.01-1.846 1.562-2.934 3.066-2.978 1.256-.038 2.107.434 2.51.742v1.988c-.477-.49-1.25-.932-2.05-.94-.647-.006-1.32.28-1.344 1.092-.022.832.65 1.16 1.504 1.66 1.91 1.123 2.28 2.132 2.235 3.465-.043 1.46-1.05 3.057-3.31 3.057-.903 0-1.796-.283-2.512-.71v-2.105c.584.52 1.456.925 2.185.93.84.006 1.39-.474 1.37-1.27zm-12.656-7.677H9.806v8.617c-.25.17-.618.28-1.082.28-1.048 0-1.205-.96-1.205-1.61v-7.288H5.233v7.186c0 2.423 1.147 3.65 3.41 3.65 1.398 0 2.57-.325 3.444-.918v-9.917zm3.46 10.667v4.814H13.26v-14.9c.83-.535 1.836-.813 3.082-.813 2.73 0 4.228 2.07 4.228 5.404 0 3.34-1.456 5.625-3.994 5.625-.468 0-.8-.063-1.028-.13zm0-1.868c.164.06.432.138.742.138 1.316 0 1.944-1.207 1.944-3.706 0-2.56-.55-3.62-1.876-3.62-.31 0-.624.073-.81.165v7.022z"/><linearGradient id="d" gradientUnits="userSpaceOnUse" x1="15.065" y1="2.721" x2="3.108" y2="14.267" gradientTransform="matrix(1 0 0 -1 0 34)"><stop offset=".005" stop-color="#B76E11"/><stop offset=".159" stop-color="#C27514"/><stop offset=".381" stop-color="#C97916"/><stop offset="1" stop-color="#CB7A17"/></linearGradient><path fill="url(#d)" d="M4.067 18.74c0 2.882 1.066 5.29 3.09 6.94 1.79 1.456 7.29 3.946 8.844 4.63v-.18c-1.287-.57-6.928-3.103-8.737-4.578-1.982-1.615-3.03-3.97-3.03-6.812h-.166z"/><linearGradient id="e" gradientUnits="userSpaceOnUse" x1="16.934" y1="2.722" x2="28.89" y2="14.268" gradientTransform="matrix(1 0 0 -1 0 34)"><stop offset="0" stop-color="#FFC10E"/><stop offset="1" stop-color="#D99814"/></linearGradient><path fill="url(#e)" d="M16 30.31c1.532-.674 7.02-3.133 8.84-4.63 2.038-1.68 3.093-4.03 3.093-6.94h-.164c0 2.862-1.022 5.154-3.034 6.812-1.75 1.44-7.043 3.832-8.736 4.58v.18z"/><linearGradient id="f" gradientUnits="userSpaceOnUse" x1="4.077" y1="24.081" x2="27.317" y2="32.174" gradientTransform="matrix(1 0 0 -1 0 34)"><stop offset="0" stop-color="#E39F15"/><stop offset=".975" stop-color="#8D4A02"/></linearGradient><path fill="url(#f)" d="M27.77 3.745c-1.747-.158-3.34-.236-4.863-.236-7.803 0-13.913 2.11-18.676 6.453l-.163-.072C9.71 4.715 16.54 3.347 22.907 3.347c1.717 0 3.403.1 5.026.25l-.164.15z"/><linearGradient id="g" gradientUnits="userSpaceOnUse" x1="16.657" y1="14.246" x2="18.538" y2="17.985" gradientTransform="matrix(1 0 0 -1 0 34)"><stop offset=".05" stop-color="#FFD300"/><stop offset=".95" stop-color="#B76E11"/></linearGradient><path fill="url(#g)" d="M16.29 19.57c1.316 0 1.944-1.208 1.944-3.707h-.164c0 2.02-.398 3.542-1.78 3.542v.164z"/><linearGradient id="h" gradientUnits="userSpaceOnUse" x1="16.3" y1="14.514" x2="15.552" y2="14.606" gradientTransform="matrix(1 0 0 -1 0 34)"><stop offset=".05" stop-color="#FFD300"/><stop offset=".95" stop-color="#EFAF13"/></linearGradient><path fill="url(#h)" d="M16.29 19.405c-.225 0-.426-.044-.578-.09l-.164.117c.164.06.432.138.742.138v-.165z"/><linearGradient id="i" gradientUnits="userSpaceOnUse" x1="15.571" y1="21.506" x2="16.369" y2="21.715" gradientTransform="matrix(1 0 0 -1 0 34)"><stop offset=".05" stop-color="#A15C0A"/><stop offset=".95" stop-color="#8D4A02"/></linearGradient><path fill="url(#i)" d="M15.712 12.516c.16-.06.397-.11.645-.11v-.163c-.31 0-.624.073-.81.165l.165.108z"/><linearGradient id="j" gradientUnits="userSpaceOnUse" x1="18.552" y1="18.299" x2="16.708" y2="21.935" gradientTransform="matrix(1 0 0 -1 0 34)"><stop offset=".05" stop-color="#B76E11"/><stop offset=".95" stop-color="#8D4A02"/></linearGradient><path fill="url(#j)" d="M18.07 15.863c0-2.196-.364-3.456-1.712-3.456v-.164c1.327 0 1.876 1.06 1.876 3.62h-.164z"/><linearGradient id="k" gradientUnits="userSpaceOnUse" x1="23.962" y1="23.973" x2="20.621" y2="20.954" gradientTransform="matrix(1 0 0 -1 0 34)"><stop offset=".05" stop-color="#FFCA05"/><stop offset=".95" stop-color="#C07414"/></linearGradient><path fill="url(#k)" d="M20.925 13.38c-.01-1.878 1.564-3.095 3.227-3.143l.005.164c-1.504.045-3.077 1.133-3.067 2.98h-.165z"/><linearGradient id="l" gradientUnits="userSpaceOnUse" x1="23.208" y1="20.79" x2="24.515" y2="21.926" gradientTransform="matrix(1 0 0 -1 0 34)"><stop offset=".05" stop-color="#A2610A"/><stop offset=".95" stop-color="#8D4A02"/></linearGradient><path fill="url(#l)" d="M24.617 12.193c-.648-.006-1.322.28-1.345 1.092l.164.004c.006-.22.108-.934 1.158-.934l.023-.163z"/><linearGradient id="m" gradientUnits="userSpaceOnUse" x1="26.931" y1="20.66" x2="24.641" y2="21.853" gradientTransform="matrix(1 0 0 -1 0 34)"><stop offset="0" stop-color="#E29618"/><stop offset=".95" stop-color="#8D4A02"/></linearGradient><path fill="url(#m)" d="M26.665 13.132c-.476-.49-1.25-.932-2.048-.94l-.023.164c.945 0 1.753.615 2.235 1.18l-.165-.404z"/><linearGradient id="n" gradientUnits="userSpaceOnUse" x1="24.168" y1="23.814" x2="26.834" y2="22.953" gradientTransform="matrix(1 0 0 -1 0 34)"><stop offset=".05" stop-color="#FFCA05"/><stop offset=".95" stop-color="#EC9D00"/></linearGradient><path fill="url(#n)" d="M26.83 11.063l-.165.08c-.402-.308-1.253-.78-2.51-.74l-.004-.165c1.394-.043 2.322.536 2.68.825z"/><linearGradient id="o" gradientUnits="userSpaceOnUse" x1="27.423" y1="15.332" x2="24.041" y2="12.02" gradientTransform="matrix(1 0 0 -1 0 34)"><stop offset=".05" stop-color="#975006"/><stop offset=".95" stop-color="#8D4A02"/></linearGradient><path fill="url(#o)" d="M27.01 18.41c-.043 1.463-1.05 3.06-3.31 3.06v.163c2.073 0 3.42-1.38 3.475-3.218l-.164-.004z"/><linearGradient id="p" gradientUnits="userSpaceOnUse" x1="21.018" y1="13.125" x2="23.697" y2="12.351" gradientTransform="matrix(1 0 0 -1 0 34)"><stop offset="0" stop-color="#975006"/><stop offset=".95" stop-color="#8D4A02"/></linearGradient><path fill="url(#p)" d="M21.188 20.76c.716.426 1.61.71 2.513.71v.163c-.98 0-1.858-.293-2.676-.78l.164-.094z"/><linearGradient id="q" gradientUnits="userSpaceOnUse" x1="23.349" y1="14.365" x2="20.938" y2="15.536" gradientTransform="matrix(1 0 0 -1 0 34)"><stop offset=".05" stop-color="#FFD300"/><stop offset="1" stop-color="#EFAF13"/></linearGradient><path fill="url(#q)" d="M23.373 19.584c-.73-.005-1.602-.41-2.185-.93l-.164-.366c.596.603 1.537 1.126 2.35 1.132v.164z"/><linearGradient id="r" gradientUnits="userSpaceOnUse" x1="23.48" y1="14.3" x2="24.857" y2="15.566" gradientTransform="matrix(1 0 0 -1 0 34)"><stop offset=".05" stop-color="#FFD300"/><stop offset=".95" stop-color="#E5A812"/></linearGradient><path fill="url(#r)" d="M24.744 18.31c.02.798-.532 1.28-1.37 1.275v-.164c.714.006 1.224-.375 1.205-1.104l.164-.005z"/><linearGradient id="s" gradientUnits="userSpaceOnUse" x1="20.892" y1="20.596" x2="24.446" y2="15.482" gradientTransform="matrix(1 0 0 -1 0 34)"><stop offset=".005" stop-color="#C07414"/><stop offset=".4" stop-color="#A15C0A"/><stop offset=".6" stop-color="#A15C0A"/><stop offset="1" stop-color="#E5A812"/></linearGradient><path fill="url(#s)" d="M24.58 18.315c-.014-.605-.316-.955-1.347-1.56-1.926-1.13-2.305-2.093-2.308-3.374h.164c.002 1.216.34 2.126 2.226 3.232 1.005.59 1.41.98 1.428 1.698l-.164.005z"/><linearGradient id="t" gradientUnits="userSpaceOnUse" x1="23.544" y1="20.915" x2="27.351" y2="15.713" gradientTransform="matrix(1 0 0 -1 0 34)"><stop offset="0" stop-color="#A2610A"/><stop offset=".4" stop-color="#F1B70F"/><stop offset=".6" stop-color="#F1B70F"/><stop offset=".95" stop-color="#975006"/></linearGradient><path fill="url(#t)" d="M24.86 14.803c1.988 1.17 2.36 2.25 2.315 3.612l-.164-.005c.045-1.333-.324-2.342-2.234-3.465-.853-.5-1.526-.83-1.504-1.66l.164.004c-.02.756.616 1.024 1.423 1.513"/><path fill="#8D4A02" d="M15.548 26.114H13.26l-.163.164h2.615"/><linearGradient id="u" gradientUnits="userSpaceOnUse" x1="15.536" y1="12.621" x2="16.585" y2="12.459" gradientTransform="matrix(1 0 0 -1 0 34)"><stop offset=".05" stop-color="#975006"/><stop offset=".95" stop-color="#8D4A02"/></linearGradient><path fill="url(#u)" d="M16.577 21.594c-.316 0-.606-.028-.864-.083l-.165-.21c.228.067.56.13 1.03.13v.164z"/><linearGradient id="v" gradientUnits="userSpaceOnUse" x1="21.311" y1="17.783" x2="17.162" y2="11.987" gradientTransform="matrix(1 0 0 -1 0 34)"><stop offset=".05" stop-color="#A15C00"/><stop offset=".95" stop-color="#8D4A02"/></linearGradient><path fill="url(#v)" d="M20.735 15.804c0 2.976-1.212 5.79-4.158 5.79v-.164c2.538 0 3.994-2.285 3.994-5.625h.165z"/><linearGradient id="w" gradientUnits="userSpaceOnUse" x1="16.335" y1="23.79" x2="13.078" y2="22.948" gradientTransform="matrix(1 0 0 -1 0 34)"><stop offset=".05" stop-color="#FFD000"/><stop offset=".95" stop-color="#EC9D19"/></linearGradient><path fill="url(#w)" d="M13.097 11.125c.877-.598 1.98-.888 3.246-.888v.164c-1.247 0-2.253.28-3.08.814l-.166-.09z"/><linearGradient id="x" gradientUnits="userSpaceOnUse" x1="16.943" y1="24.234" x2="21.318" y2="18.653" gradientTransform="matrix(1 0 0 -1 0 34)"><stop offset=".053" stop-color="#FFD000"/><stop offset=".5" stop-color="#DC8C00"/><stop offset=".95" stop-color="#A85C00"/></linearGradient><path fill="url(#x)" d="M16.342 10.237c3.16 0 4.393 2.62 4.393 5.567h-.164c0-3.333-1.498-5.403-4.227-5.403v-.163z"/><path fill="#FCB813" d="M7.52 10.633H5.233l-.164-.164h2.614l-.165.163zm4.568 0H9.806l-.164-.164h2.61l-.164.163z"/><path fill="#CB7A17" d="M4.067 18.74V9.89l.164.074v8.776"/><path fill="#975006" d="M26.83 13.536v-2.473l-.165.08v1.99"/><path fill="#CB7A17" d="M7.683 17.92v-7.45l-.164.163v7.288"/><path fill="#D99814" d="M27.77 18.74V3.745l.163-.15V18.74"/><path fill="#B76E11" d="M21.024 18.288v2.565l.164-.094v-2.106"/><path fill="#D89016" d="M9.805 19.25v-8.617l-.164-.164v8.69M5.234 17.82v-7.187l-.164-.164v7.35"/><linearGradient id="y" gradientUnits="userSpaceOnUse" x1="4.65" y1="15.792" x2="8.209" y2="11.963" gradientTransform="matrix(1 0 0 -1 0 34)"><stop offset=".05" stop-color="#D89016"/><stop offset=".95" stop-color="#8D4A02"/></linearGradient><path fill="url(#y)" d="M8.643 21.633c-2.44 0-3.574-1.394-3.574-3.814h.163c0 2.422 1.147 3.65 3.41 3.65v.163z"/><linearGradient id="z" gradientUnits="userSpaceOnUse" x1="12.276" y1="13.27" x2="8.652" y2="12.332" gradientTransform="matrix(1 0 0 -1 0 34)"><stop offset=".05" stop-color="#A15C0A"/><stop offset=".95" stop-color="#8D4A02"/></linearGradient><path fill="url(#z)" d="M12.252 20.638c-.97.658-2.15.995-3.61.995v-.164c1.4 0 2.573-.326 3.446-.92l.164.088z"/><linearGradient id="A" gradientUnits="userSpaceOnUse" x1="8.714" y1="14.512" x2="9.799" y2="14.778" gradientTransform="matrix(1 0 0 -1 0 34)"><stop offset=".05" stop-color="#FFD300"/><stop offset=".95" stop-color="#FFC10E"/></linearGradient><path fill="url(#A)" d="M8.724 19.365c.364 0 .685-.073.917-.206l.165.09c-.25.17-.618.28-1.082.28v-.165z"/><linearGradient id="B" gradientUnits="userSpaceOnUse" x1="8.573" y1="14.36" x2="7.386" y2="15.982" gradientTransform="matrix(1 0 0 -1 0 34)"><stop offset=".05" stop-color="#FFD300"/><stop offset=".95" stop-color="#CB7A17"/></linearGradient><path fill="url(#B)" d="M8.724 19.53c-1.048 0-1.205-.96-1.205-1.61h.163c0 .795.235 1.444 1.04 1.444v.165z"/><path fill="#CB7A17" d="M13.097 11.125v15.153l.164-.164v-14.9"/><path fill="#C07414" d="M15.712 19.314v-6.798l-.164-.108v7.024l.164-.118zm0 2.197v4.768l-.164-.164V21.3l.164.21zM12.252 20.638v-10.17l-.164.165v9.918"/></svg>